<?xml version="1.0" encoding="UTF-8"?>
<!DOCTYPE svg PUBLIC "-//W3C//DTD SVG 1.1//EN" "http://www.w3.org/Graphics/SVG/1.1/DTD/svg11.dtd">
<svg xmlns="http://www.w3.org/2000/svg" version="1.1" width="170px" height="170px" style="shape-rendering:geometricPrecision; text-rendering:geometricPrecision; image-rendering:optimizeQuality; fill-rule:evenodd; clip-rule:evenodd" xmlns:xlink="http://www.w3.org/1999/xlink">
<g><path style="opacity:0.996" fill="#49af36" d="M 114.5,81.5 C 113.833,81.5 113.5,81.8333 113.5,82.5C 112.833,82.5 112.5,82.8333 112.5,83.5C 111.833,83.5 111.5,83.8333 111.5,84.5C 110.833,84.5 110.5,84.8333 110.5,85.5C 109.094,85.9731 108.427,86.9731 108.5,88.5C 107.833,88.5 107.5,88.8333 107.5,89.5C 106.662,89.8417 106.328,90.5084 106.5,91.5C 105.833,91.5 105.5,91.8333 105.5,92.5C 104.662,92.8417 104.328,93.5084 104.5,94.5C 102.35,96.7596 100.183,99.0929 98,101.5C 97.6805,105.214 97.1805,108.881 96.5,112.5C 94.9216,117.583 94.2549,122.916 94.5,128.5C 94.4138,134.94 93.7472,141.273 92.5,147.5C 90.0246,148.687 89.0246,150.687 89.5,153.5C 77.5,153.5 65.5,153.5 53.5,153.5C 56.0803,142.36 57.0803,131.027 56.5,119.5C 58.3452,113.216 58.6785,106.882 57.5,100.5C 43.9409,77.0577 30.6075,53.3911 17.5,29.5C 32.1667,28.1667 46.8333,28.1667 61.5,29.5C 68.3489,43.1978 75.1822,56.8644 82,70.5C 91.5,56.8333 101,43.1667 110.5,29.5C 125.167,28.1667 139.833,28.1667 154.5,29.5C 140.76,46.5669 127.426,63.9002 114.5,81.5 Z"/></g>
<g><path style="opacity:0.075" fill="#f1c1b4" d="M 114.5,81.5 C 115.376,81.3691 116.043,81.7025 116.5,82.5C 113.046,86.4489 110.213,90.7822 108,95.5C 104.442,99.7938 103.276,99.4604 104.5,94.5C 105.338,94.1583 105.672,93.4916 105.5,92.5C 106.167,92.5 106.5,92.1667 106.5,91.5C 107.338,91.1583 107.672,90.4916 107.5,89.5C 108.167,89.5 108.5,89.1667 108.5,88.5C 108.427,86.9731 109.094,85.9731 110.5,85.5C 111.167,85.5 111.5,85.1667 111.5,84.5C 112.167,84.5 112.5,84.1667 112.5,83.5C 113.167,83.5 113.5,83.1667 113.5,82.5C 114.167,82.5 114.5,82.1667 114.5,81.5 Z"/></g>
<g><path style="opacity:0.694" fill="#85c071" d="M 57.5,100.5 C 58.6785,106.882 58.3452,113.216 56.5,119.5C 56.8995,113.171 57.2329,106.838 57.5,100.5 Z"/></g>
<g><path style="opacity:0.271" fill="#aac188" d="M 96.5,112.5 C 96.3315,118.034 95.6649,123.367 94.5,128.5C 94.2549,122.916 94.9216,117.583 96.5,112.5 Z"/></g>
<g><path style="opacity:0.735" fill="#6fae5c" d="M 56.5,119.5 C 57.0803,131.027 56.0803,142.36 53.5,153.5C 65.5,153.5 77.5,153.5 89.5,153.5C 89.0246,150.687 90.0246,148.687 92.5,147.5C 92.9577,150.394 92.291,152.894 90.5,155C 77.8377,155.5 65.1711,155.667 52.5,155.5C 53.1901,143.288 54.5235,131.288 56.5,119.5 Z"/></g>
</svg>
